<svg width="32" height="32" viewBox="0 0 32 32" fill="none" xmlns="http://www.w3.org/2000/svg">
<path d="M16 1.33325L28.0666 8.53325C28.4666 8.7777 28.7777 9.11103 29 9.53325C29.2222 9.95547 29.3333 10.3999 29.3333 10.8666V25.3333C29.3333 26.0666 29.0724 26.6946 28.5506 27.2173C28.028 27.739 27.4 27.9999 26.6666 27.9999H5.33329C4.59996 27.9999 3.9724 27.739 3.45063 27.2173C2.92796 26.6946 2.66663 26.0666 2.66663 25.3333V10.8666C2.66663 10.3999 2.77774 9.95547 2.99996 9.53325C3.22218 9.11103 3.53329 8.7777 3.93329 8.53325L16 1.33325ZM16 16.8666L26.4 10.6666L16 4.46659L5.59996 10.6666L16 16.8666ZM16 19.9999L5.33329 13.5999V25.3333H26.6666V13.5999L16 19.9999ZM16 25.3333H26.6666H5.33329H16Z" fill="url(#paint0_linear_16_58)"/>
<defs>
<linearGradient id="paint0_linear_16_58" x1="16" y1="1.33325" x2="16" y2="27.9999" gradientUnits="userSpaceOnUse">
<stop stop-color="#6BE5D6"/>
<stop offset="1" stop-color="#126BD4"/>
</linearGradient>
</defs>
</svg>
