<svg width="123" height="41" viewBox="0 0 123 41" fill="none" xmlns="http://www.w3.org/2000/svg">
<path d="M0.413391 40V0.727295H8.71666V33.1541H25.5533V40H0.413391Z" fill="#141414"/>
<path d="M49.7871 27.4588V10.5455H57.9562V40H50.1131V34.6499H49.8063C49.1416 36.3757 48.0357 37.7628 46.4889 38.8111C44.9548 39.8594 43.0819 40.3835 40.8702 40.3835C38.9015 40.3835 37.1693 39.9361 35.6735 39.0412C34.1778 38.1463 33.008 36.8743 32.1643 35.2252C31.3333 33.576 30.9114 31.6009 30.8987 29.2997V10.5455H39.0677V27.8424C39.0805 29.581 39.5471 30.9553 40.4675 31.9652C41.388 32.9752 42.6217 33.4801 44.1685 33.4801C45.1529 33.4801 46.0734 33.2564 46.9299 32.809C47.7864 32.3487 48.4768 31.6712 49.0009 30.7763C49.5379 29.8814 49.7999 28.7756 49.7871 27.4588Z" fill="#141414"/>
<path d="M72.8896 40.5561C71.0103 40.5561 69.3356 40.2301 67.8654 39.5781C66.3953 38.9134 65.2319 37.9354 64.3754 36.6442C63.5316 35.3402 63.1098 33.7166 63.1098 31.7735C63.1098 30.1371 63.4102 28.7628 64.011 27.6506C64.6119 26.5384 65.4301 25.6435 66.4656 24.9659C67.5011 24.2884 68.6772 23.777 69.994 23.4318C71.3235 23.0867 72.717 22.8438 74.1744 22.7031C75.8875 22.5242 77.2681 22.358 78.3164 22.2046C79.3647 22.0384 80.1254 21.7955 80.5984 21.4759C81.0714 21.1563 81.3079 20.6833 81.3079 20.0568V19.9418C81.3079 18.7273 80.9244 17.7877 80.1574 17.1229C79.4031 16.4581 78.3292 16.1257 76.9358 16.1257C75.4656 16.1257 74.2958 16.4517 73.4265 17.1037C72.5572 17.7429 71.9819 18.5483 71.7007 19.5199L64.1453 18.9063C64.5288 17.1165 65.2831 15.5696 66.4081 14.2656C67.5331 12.9489 68.9841 11.9389 70.761 11.2358C72.5508 10.5199 74.6218 10.162 76.9741 10.162C78.6105 10.162 80.1765 10.3537 81.6723 10.7372C83.1808 11.1208 84.5167 11.7152 85.6801 12.5206C86.8562 13.326 87.7831 14.3615 88.4606 15.6272C89.1382 16.88 89.477 18.3821 89.477 20.1335V40H81.7298V35.9155H81.4997C81.0267 36.836 80.3939 37.6478 79.6012 38.3509C78.8086 39.0412 77.8562 39.5845 76.744 39.9808C75.6318 40.3644 74.347 40.5561 72.8896 40.5561ZM75.2291 34.9183C76.4308 34.9183 77.4919 34.6818 78.4123 34.2088C79.3328 33.723 80.0551 33.071 80.5792 32.2529C81.1034 31.4347 81.3655 30.5078 81.3655 29.4723V26.3466C81.1098 26.5128 80.7582 26.6662 80.3108 26.8068C79.8761 26.9347 79.3839 27.0561 78.8342 27.1712C78.2845 27.2735 77.7348 27.3693 77.1851 27.4588C76.6353 27.5355 76.1368 27.6058 75.6893 27.6698C74.7305 27.8104 73.8931 28.0341 73.1772 28.3409C72.4613 28.6478 71.9052 29.0632 71.5089 29.5874C71.1126 30.0987 70.9145 30.7379 70.9145 31.505C70.9145 32.6172 71.3172 33.4674 72.1226 34.0554C72.9407 34.6307 73.9762 34.9183 75.2291 34.9183Z" fill="#141414"/>
<path d="M103.984 22.9716V40H95.8147V10.5455H103.6V15.7422H103.945C104.597 14.0291 105.69 12.674 107.224 11.6769C108.759 10.6669 110.619 10.162 112.805 10.162C114.85 10.162 116.634 10.6094 118.155 11.5043C119.676 12.3992 120.859 13.6776 121.702 15.3395C122.546 16.9887 122.968 18.9574 122.968 21.2458V40H114.799V22.7031C114.812 20.9006 114.352 19.4943 113.418 18.4844C112.485 17.4617 111.2 16.9503 109.564 16.9503C108.465 16.9503 107.493 17.1868 106.649 17.6598C105.818 18.1328 105.166 18.8232 104.693 19.7308C104.233 20.6257 103.996 21.706 103.984 22.9716Z" fill="#141414"/>
</svg>
