<svg width="32" height="32" viewBox="0 0 32 32" fill="none" xmlns="http://www.w3.org/2000/svg">
<path d="M26.6 28C23.7333 28 20.9391 27.3609 18.2173 26.0827C15.4947 24.8053 13.0836 23.1164 10.984 21.016C8.88356 18.9164 7.19467 16.5053 5.91733 13.7827C4.63911 11.0609 4 8.26667 4 5.4C4 5 4.13333 4.66667 4.4 4.4C4.66667 4.13333 5 4 5.4 4H10.8C11.1111 4 11.3889 4.1 11.6333 4.3C11.8778 4.5 12.0222 4.75556 12.0667 5.06667L12.9333 9.73333C12.9778 10.0444 12.9724 10.3276 12.9173 10.5827C12.8613 10.8387 12.7333 11.0667 12.5333 11.2667L9.3 14.5333C10.2333 16.1333 11.4058 17.6333 12.8173 19.0333C14.228 20.4333 15.7778 21.6444 17.4667 22.6667L20.6 19.5333C20.8 19.3333 21.0613 19.1831 21.384 19.0827C21.7058 18.9831 22.0222 18.9556 22.3333 19L26.9333 19.9333C27.2444 20 27.5 20.1498 27.7 20.3827C27.9 20.6164 28 20.8889 28 21.2V26.6C28 27 27.8667 27.3333 27.6 27.6C27.3333 27.8667 27 28 26.6 28ZM8.03333 12L10.2333 9.8L9.66667 6.66667H6.7C6.81111 7.57778 6.96667 8.47778 7.16667 9.36667C7.36667 10.2556 7.65556 11.1333 8.03333 12ZM19.9667 23.9333C20.8333 24.3111 21.7169 24.6111 22.6173 24.8333C23.5169 25.0556 24.4222 25.2 25.3333 25.2667V22.3333L22.2 21.7L19.9667 23.9333Z" fill="url(#paint0_linear_16_60)"/>
<defs>
<linearGradient id="paint0_linear_16_60" x1="16" y1="4" x2="16" y2="28" gradientUnits="userSpaceOnUse">
<stop stop-color="#6BE5D6"/>
<stop offset="1" stop-color="#126BD4"/>
</linearGradient>
</defs>
</svg>
